<svg width="512" height="512" viewBox="0 0 32 32" xmlns="http://www.w3.org/2000/svg" shape-rendering="crispEdges">
  <style>
    .skin { fill: #55cc55; }
    .dark { fill: #2d5e2d; }
    .tunic { fill: #8b5a2b; } /* Ogre Brown */
    .pants { fill: #3e2723; } /* Dark Brown */
  </style>

  <rect x="8" y="3" width="2" height="3" class="skin" />
  <rect x="22" y="3" width="2" height="3" class="skin" />
  <rect x="10" y="4" width="1" height="2" class="skin" />
  <rect x="21" y="4" width="1" height="2" class="skin" />

  <rect x="11" y="2" width="10" height="12" rx="1" class="skin" />
  
  <rect x="13" y="6" width="2" height="2" fill="white" />
  <rect x="14" y="6" width="1" height="1" class="dark" />
  <rect x="17" y="6" width="2" height="2" fill="white" />
  <rect x="18" y="6" width="1" height="1" class="dark" />

  <rect x="14" y="10" width="4" height="1" class="dark" />

  <rect x="12" y="14" width="8" height="1" class="skin" />

  <rect x="10" y="15" width="12" height="9" class="tunic" />
  <rect x="10" y="20" width="12" height="1" fill="rgba(0,0,0,0.1)" />

  <rect x="7" y="15" width="3" height="7" class="skin" />
  <rect x="22" y="15" width="3" height="7" class="skin" />

  <rect x="11" y="24" width="3" height="4" class="pants" />
  <rect x="18" y="24" width="3" height="4" class="pants" />

  <rect x="10" y="27" width="4" height="1" class="dark" />
  <rect x="18" y="27" width="4" height="1" class="dark" />
</svg>